<svg width="670" height="171" xmlns="http://www.w3.org/2000/svg">
 <defs>
  <clipPath id="a">
   <path id="svg_1" d="m0,0l800,0l0,400l-800,0l0,-400z"/>
  </clipPath>
 </defs>
 <g>
  <title>Layer 1</title>
  <g id="svg_2" clip-path="url(#a)">
   <path id="svg_3" d="m156.761,16.53149c-17.987,0 -33.932,8.721 -43.853,22.16c-9.92,-13.439 -25.865,-22.16 -43.852,-22.16c-30.087,0 -54.478,24.391 -54.478,54.478l0,83.459l21.25,0l0,-83.459c0,-18.352 14.877,-33.228 33.228,-33.228s33.227,14.876 33.227,33.228l0,83.459l21.25,0l0,-83.459c0,-18.352 14.877,-33.228 33.228,-33.228s33.228,14.876 33.228,33.228l0,83.459l21.25,0l0,-83.459c0,-30.087 -24.391,-54.478 -54.478,-54.478z" fill="#353535"/>
   <path id="svg_4" d="m253.739,22.02963l-21.25,0l0,132.4377l21.25,0l0,-132.4377z" fill="#353535"/>
   <path id="svg_5" d="m334.99999,16.53149c-33.144,0 -60.011,26.868 -60.011,60.011l0,77.926l21.25,0l0,-77.926l0.025,0c-0.009,-0.325 -0.025,-0.649 -0.025,-0.976c0,-21.407 17.354,-38.762 38.761,-38.762c21.407,0 38.761,17.355 38.761,38.762c0,0.327 -0.016,0.651 -0.025,0.976l0.025,0l0,77.926l21.25,0l0,-77.926c0,-33.143 -26.868,-60.011 -60.011,-60.011z" fill="#353535"/>
   <path id="svg_6" d="m437.51201,22.02963l-21.25,0l0,132.4377l21.25,0l0,-132.4377z" fill="#353535"/>
   <path id="svg_7" d="m600.944,16.53149c-17.986,0 -33.932,8.721 -43.853,22.16c-9.92,-13.439 -25.865,-22.16 -43.852,-22.16c-30.087,0 -54.477,24.391 -54.477,54.478l0,83.459l21.25,0l0,-83.459c0,-18.352 14.876,-33.228 33.227,-33.228s33.227,14.876 33.227,33.228l0,83.459l21.25,0l0,-83.459c0,-18.352 14.877,-33.228 33.228,-33.228c18.352,0 33.228,14.876 33.228,33.228l0,83.459l21.25,0l0,-83.459c0,-30.087 -24.39,-54.478 -54.478,-54.478z" fill="#353535"/>
  </g>
 </g>
</svg>